<?xml version="1.0" encoding="utf-8"?>

<svg version="1.1" id="Layer_1" xmlns="http://www.w3.org/2000/svg" xmlns:xlink="http://www.w3.org/1999/xlink" x="0px" y="0px"
	 viewBox="387 174 1386 445" style="enable-background:new 387 174 1386 445;" xml:space="preserve">

<g>
            <path fill="#000000" fill-opacity="1"
                d="M0,224L21.8,202.7C43.6,181,87,139,131,154.7C174.5,171,218,245,262,256C305.5,267,349,213,393,181.3C436.4,149,480,139,524,144C567.3,149,611,171,655,197.3C698.2,224,742,256,785,240C829.1,224,873,160,916,160C960,160,1004,224,1047,261.3C1090.9,299,1135,309,1178,304C1221.8,299,1265,277,1309,240C1352.7,203,1396,149,1418,122.7L1440,96L1440,320L1418.2,320C1396.4,320,1353,320,1309,320C1265.5,320,1222,320,1178,320C1134.5,320,1091,320,1047,320C1003.6,320,960,320,916,320C872.7,320,829,320,785,320C741.8,320,698,320,655,320C610.9,320,567,320,524,320C480,320,436,320,393,320C349.1,320,305,320,262,320C218.2,320,175,320,131,320C87.3,320,44,320,22,320L0,320Z">
            </path>
</g>
</svg>
